<?xml version="1.0" encoding="UTF-8" standalone="no"?>
<svg
   xmlns:dc="http://purl.org/dc/elements/1.1/"
   xmlns:cc="http://creativecommons.org/ns#"
   xmlns:rdf="http://www.w3.org/1999/02/22-rdf-syntax-ns#"
   xmlns:svg="http://www.w3.org/2000/svg"
   xmlns="http://www.w3.org/2000/svg"
   xmlns:sodipodi="http://sodipodi.sourceforge.net/DTD/sodipodi-0.dtd"
   xmlns:inkscape="http://www.inkscape.org/namespaces/inkscape"
   width="75.659889mm"
   height="10.541954mm"
   viewBox="0 0 75.659889 10.541954"
   version="1.1"
   id="svg8"
   inkscape:version="1.0.1 (3bc2e813f5, 2020-09-07)"
   sodipodi:docname="circadiaware-text-logo2.svg">
  <defs
     id="defs2" />
  <sodipodi:namedview
     id="base"
     pagecolor="#ffffff"
     bordercolor="#666666"
     borderopacity="1.0"
     inkscape:pageopacity="0.0"
     inkscape:pageshadow="2"
     inkscape:zoom="1.979899"
     inkscape:cx="43.077705"
     inkscape:cy="52.666966"
     inkscape:document-units="mm"
     inkscape:current-layer="layer1"
     inkscape:document-rotation="0"
     showgrid="false"
     inkscape:snap-center="true"
     inkscape:snap-object-midpoints="true"
     showguides="true"
     inkscape:guide-bbox="true"
     inkscape:window-width="1920"
     inkscape:window-height="1001"
     inkscape:window-x="-9"
     inkscape:window-y="-9"
     inkscape:window-maximized="1"
     fit-margin-top="0"
     fit-margin-left="0"
     fit-margin-right="0"
     fit-margin-bottom="0" />
  <metadata
     id="metadata5">
    <rdf:RDF>
      <cc:Work
         rdf:about="">
        <dc:format>image/svg+xml</dc:format>
        <dc:type
           rdf:resource="http://purl.org/dc/dcmitype/StillImage" />
        <dc:title />
      </cc:Work>
    </rdf:RDF>
  </metadata>
  <g
     inkscape:label="Calque 1"
     inkscape:groupmode="layer"
     id="layer1"
     transform="translate(-29.711154,-106.61625)">
    <text
       xml:space="preserve"
       style="font-style:normal;font-variant:normal;font-weight:normal;font-stretch:normal;font-size:11.2889px;line-height:1.25;font-family:'Arial Rounded MT Bold';-inkscape-font-specification:'Arial Rounded MT Bold, ';letter-spacing:0px;word-spacing:0px;fill:#000000;fill-opacity:1;stroke:none;stroke-width:0.264583"
       x="29.132378"
       y="115.19317"
       id="text835"><tspan
         sodipodi:role="line"
         id="tspan833"
         x="29.132378"
         y="115.19317"
         style="font-style:normal;font-variant:normal;font-weight:normal;font-stretch:normal;font-family:sans-serif;-inkscape-font-specification:sans-serif;stroke-width:0.264583">cir   adiaware</tspan></text>
    <circle
       style="fill:#0088aa;fill-opacity:0.576471;stroke:none;stroke-width:0.0231245"
       id="path871"
       cx="52.436974"
       cy="137.46855"
       r="9.5911455" />
    <path
       id="path837"
       style="fill:#ffffff;fill-opacity:1;stroke:none;stroke-width:0.00719811"
       d="m 52.705084,130.04348 a 7.1963229,7.1963229 0 0 0 -7.196225,7.19622 7.1963229,7.1963229 0 0 0 7.196225,7.19623 7.1963229,7.1963229 0 0 0 7.145097,-6.34507 5.4984221,5.4984221 0 0 1 -5.030743,3.28231 5.4984221,5.4984221 0 0 1 -5.498926,-5.49793 5.4984221,5.4984221 0 0 1 5.498926,-5.49892 5.4984221,5.4984221 0 0 1 0.05013,0.001 7.1963229,7.1963229 0 0 0 -2.164481,-0.33384 z" />
    <path
       id="path841"
       style="fill:#d5f6ff;fill-opacity:0.574932;stroke:none;stroke-width:0.012125"
       d="m 53.076244,128.57067 v 0 c 4.170922,-3e-5 7.552132,4.12824 7.552098,8.29916 -5.1e-5,4.17087 -3.381236,7.55198 -7.552098,7.55195 -4.170863,3e-5 -7.552048,-3.38108 -7.552099,-7.55195 l 0.792406,-0.01 -1.535813,-2.34282 -1.536856,2.34282 0.793448,0.01 c 3.1e-5,4.99203 4.046872,9.03888 9.038914,9.03892 4.992041,-4e-5 9.038882,-4.04689 9.038913,-9.03892 5.1e-5,-4.9921 -4.046813,-8.29914 -9.038913,-8.29916 z"
       sodipodi:nodetypes="cccccccccccc" />
  </g>
</svg>
